<svg xmlns="http://www.w3.org/2000/svg" viewBox="0 0 88.42 74.19"><defs><style>.cls-1{font-size:14.55px;font-family:Montserrat-Light, Montserrat;font-weight:300;}.cls-1,.cls-4{fill:#f20000;}.cls-2{letter-spacing:-0.06em;}.cls-3{letter-spacing:-0.01em;}</style></defs><title>logo-alt</title><g id="Layer_2" data-name="Layer 2"><g id="Layer_1-2" data-name="Layer 1"><text class="cls-1" transform="translate(0 70.4)">IE<tspan class="cls-2" x="14.03" y="0">L</tspan><tspan class="cls-3" x="21.61" y="0">T</tspan><tspan x="29.62" y="0">S GIASU</tspan></text><path class="cls-4" d="M39.14,31.57a9.27,9.27,0,0,1-2.38-6.31V19a17.46,17.46,0,0,0-6.19-1,16.11,16.11,0,0,0-5.49.79A11.42,11.42,0,0,0,21,21.59l5,5a6.37,6.37,0,0,1,1.86-1.39,5.88,5.88,0,0,1,2.35-.37,4.81,4.81,0,0,1,3.07.76,3.14,3.14,0,0,1,.9,2.52v.69H28.81c-3,0-5.21.73-6.72,2.21a7.31,7.31,0,0,0-2.25,5.44,8.76,8.76,0,0,0,2.94,6.81Q24.49,45,28.47,45a8.63,8.63,0,0,0,3.33-.55,8.68,8.68,0,0,0,2.55-1.8v2.15h7.84V33.66a7.61,7.61,0,0,1-3-2.09m-5,3.26a3,3,0,0,1-2.06,3.46,7.76,7.76,0,0,1-1.91.17,2.76,2.76,0,0,1-2-.64,2,2,0,0,1-.69-1.57,1.9,1.9,0,0,1,.69-1.52,2.78,2.78,0,0,1,1.86-.59h4.07Z"/><path class="cls-4" d="M47.69,26.3a1.43,1.43,0,0,1-1.62-1.62V0H38V25.26a8,8,0,0,0,2.06,5.47c1.37,1.56,3.41,2.33,6.12,2.33h2.27V26.3Z"/><path class="cls-4" d="M58.76,26.31V19.16h-8v7.15h-1v6.75h1V44.29a8.06,8.06,0,0,0,2.06,5.49c1.37,1.55,3.42,2.33,6.13,2.33h4V45.34H60.38a1.43,1.43,0,0,1-1.62-1.62V33.06h4.17V26.31Z"/></g></g></svg>