<svg xmlns="http://www.w3.org/2000/svg" viewBox="0 0 158.24 29.62"><title>starkcamp-logo-red</title><g id="Layer_2" data-name="Layer 2"><g id="Layer_1-2" data-name="Layer 1"><g id="logoMark"><path id="logoMark_PathItem_" data-name="logoMark &lt;PathItem&gt;" d="M11.45,29.62A11.47,11.47,0,0,0,22.84,19.41a10.24,10.24,0,0,0,.07-1.25V14.74L21,14.42l-.78-.12-2.69-.44-1.93-.31-2.69-.44L10,12.64v1.95l2.89.47,2.69.44,1.93.31,2.69.44.14,0,.64.11v1.78c0,.32,0,.63,0,.94a9.53,9.53,0,0,1-19-.94V16L0,15.69v2.47A11.47,11.47,0,0,0,11.45,29.62Z" style="fill:#be1c2f"/><path id="logoMark_PathItem_2" data-name="logoMark &lt;PathItem&gt;" d="M2.7,13.39l2.69.44v4.33a6.07,6.07,0,0,0,12.12.38l-1.92-.31a4.14,4.14,0,0,1-8.27-.07V7.53a39.41,39.41,0,0,1,8.27,0v3.29l1.93.31V5.83l-.84-.11a41.63,41.63,0,0,0-5.23-.34,41.59,41.59,0,0,0-5.22.34l-.84.11v6.05L2.7,11.44l-.77-.12V3A44.39,44.39,0,0,1,21,3V11.7l1.92.31V1.43l-.74-.18a46.46,46.46,0,0,0-21.43,0L0,1.43V13l1.93.31Z" style="fill:#be1c2f"/></g><g id="type"><path id="type_PathItem_" data-name="type &lt;PathItem&gt;" d="M41.87,15.85a4,4,0,0,0-.85-.56,6.36,6.36,0,0,0-1-.43c-.36-.12-.73-.23-1.12-.32l-1.12-.25-1-.22c-.32-.08-.6-.15-.84-.23a2.08,2.08,0,0,1-.58-.29.44.44,0,0,1-.21-.36.48.48,0,0,1,.13-.3,1.09,1.09,0,0,1,.25-.15,1.92,1.92,0,0,1,.42-.13c.18,0,.41-.07.67-.09s.58,0,1,0a8.71,8.71,0,0,1,1.36.1,12.33,12.33,0,0,1,1.24.25c.37.1.71.21,1,.32a7.23,7.23,0,0,1,.72.3V11.23c-.3-.1-.63-.19-1-.28s-.73-.17-1.11-.23-.77-.12-1.16-.16a11.56,11.56,0,0,0-1.16-.06c-.34,0-.7,0-1.08,0a8.39,8.39,0,0,0-1.12.16,5.81,5.81,0,0,0-1,.31,3.56,3.56,0,0,0-.89.53,2.47,2.47,0,0,0-.6.79,2.51,2.51,0,0,0-.23,1.1,2,2,0,0,0,.21,1,2.25,2.25,0,0,0,.58.72,3.43,3.43,0,0,0,.85.54,6.55,6.55,0,0,0,1,.4,10.88,10.88,0,0,0,1.12.3l1.12.24,1,.21a8,8,0,0,1,.84.24,2.07,2.07,0,0,1,.58.3.52.52,0,0,1,.21.41.55.55,0,0,1-.11.3.89.89,0,0,1-.4.3,3.22,3.22,0,0,1-.81.23,9.77,9.77,0,0,1-1.35.08,11,11,0,0,1-2.63-.3,9,9,0,0,1-2.19-.83v2.3a12.9,12.9,0,0,0,2.14.58,13.81,13.81,0,0,0,2.65.24c.36,0,.75,0,1.15,0a7.87,7.87,0,0,0,1.2-.15,6.7,6.7,0,0,0,1.13-.31,3.53,3.53,0,0,0,1-.55,2.53,2.53,0,0,0,.66-.85,2.69,2.69,0,0,0,.24-1.19,2.12,2.12,0,0,0-.21-1A2.41,2.41,0,0,0,41.87,15.85Z" style="fill:#be1c2f"/><polygon id="type_PathItem_2" data-name="type &lt;PathItem&gt;" points="45.42 12.84 49.5 12.84 49.5 20.38 52.1 20.38 52.1 12.84 56.2 12.84 56.2 10.75 45.42 10.75 45.42 12.84" style="fill:#be1c2f"/><path id="type_CompoundPathItem_" data-name="type &lt;CompoundPathItem&gt;" d="M62.55,10.75l-5,9.63h2.9l.9-1.82h5.37l.9,1.82h2.91l-5-9.63Zm-.31,5.93L64,13.13l1.75,3.55Z" style="fill:#be1c2f"/><path id="type_CompoundPathItem_2" data-name="type &lt;CompoundPathItem&gt;" d="M82.71,16.2a2.78,2.78,0,0,0,.68-.55,2.72,2.72,0,0,0,.46-.78A3.12,3.12,0,0,0,84,13.8a3.52,3.52,0,0,0-.21-1.25,2.3,2.3,0,0,0-.66-1A3.26,3.26,0,0,0,82,11a6.21,6.21,0,0,0-1.79-.22H73.66v9.63h2.6V16.83h2.83L82,20.38h3L81.9,16.57A4.92,4.92,0,0,0,82.71,16.2Zm-1.39-1.93a.65.65,0,0,1-.26.31,1,1,0,0,1-.48.18,4.1,4.1,0,0,1-.76.06H76.26V12.76h3.56a4.1,4.1,0,0,1,.76.06,1.18,1.18,0,0,1,.48.17.73.73,0,0,1,.26.32,1.68,1.68,0,0,1,0,1Z" style="fill:#be1c2f"/><polygon id="type_PathItem_3" data-name="type &lt;PathItem&gt;" points="99.93 10.75 96.45 10.75 91.12 14.42 91.12 10.75 88.51 10.75 88.51 20.38 91.12 20.38 91.12 16.38 96.57 20.38 100.36 20.38 93.45 15.37 99.93 10.75" style="fill:#be1c2f"/><path id="type_PathItem_4" data-name="type &lt;PathItem&gt;" d="M111.43,10.84c-.36-.08-.73-.15-1.13-.2a12.51,12.51,0,0,0-1.28-.07,9.63,9.63,0,0,0-1.64.14,7.89,7.89,0,0,0-1.47.42,5.69,5.69,0,0,0-1.23.7,4.37,4.37,0,0,0-1,1,4.15,4.15,0,0,0-.61,1.25,5.36,5.36,0,0,0,0,3,4.15,4.15,0,0,0,.61,1.25,4.37,4.37,0,0,0,1,1,5.69,5.69,0,0,0,1.23.7,7.89,7.89,0,0,0,1.47.42,9.63,9.63,0,0,0,1.64.14,12.51,12.51,0,0,0,1.28-.07c.4-.05.77-.12,1.13-.2a8.57,8.57,0,0,0,1-.3l1-.39v-1a7,7,0,0,1-.82.46,6.38,6.38,0,0,1-1,.39,8.09,8.09,0,0,1-2.45.37,8.57,8.57,0,0,1-2.41-.3,4.58,4.58,0,0,1-1.68-.85,3.3,3.3,0,0,1-1-1.33,4.57,4.57,0,0,1-.32-1.74,4.66,4.66,0,0,1,.32-1.75,3.37,3.37,0,0,1,1-1.33,4.58,4.58,0,0,1,1.68-.85,8.57,8.57,0,0,1,2.41-.3,8.25,8.25,0,0,1,2.42.36,7.28,7.28,0,0,1,1,.39c.3.15.58.31.85.48V11.52c-.34-.14-.67-.27-1-.38A8.57,8.57,0,0,0,111.43,10.84Z" style="fill:#be1c2f"/><path id="type_CompoundPathItem_3" data-name="type &lt;CompoundPathItem&gt;" d="M121.35,10.75l-5,9.63h1l1.32-2.55h6.54l1.32,2.55h1l-5-9.63ZM119,17l2.84-5.43L124.71,17Z" style="fill:#be1c2f"/><polygon id="type_PathItem_5" data-name="type &lt;PathItem&gt;" points="137.49 19.47 131.84 10.75 130.91 10.75 130.91 20.38 131.78 20.38 131.78 12.15 137.08 20.38 137.86 20.38 143.15 12.19 143.15 20.38 144.01 20.38 144.01 10.75 143.08 10.75 137.49 19.47" style="fill:#be1c2f"/><path id="type_CompoundPathItem_4" data-name="type &lt;CompoundPathItem&gt;" d="M158,12.43a2.07,2.07,0,0,0-.74-.92,3.55,3.55,0,0,0-1.3-.57,8.16,8.16,0,0,0-1.91-.19h-5.2v9.63h.87v-3.7h4.33a8.11,8.11,0,0,0,1.91-.2,3.25,3.25,0,0,0,1.3-.57A2.15,2.15,0,0,0,158,15a3.51,3.51,0,0,0,0-2.55Zm-.84,2.25a1.76,1.76,0,0,1-.47.62,2.06,2.06,0,0,1-.69.36,5.18,5.18,0,0,1-.82.16,8.31,8.31,0,0,1-.87,0h-4.59V11.57h3.77a14.4,14.4,0,0,1,1.72.08,3.62,3.62,0,0,1,1.2.3,1.48,1.48,0,0,1,.7.65,2.35,2.35,0,0,1,.23,1.11A2.3,2.3,0,0,1,157.16,14.68Z" style="fill:#be1c2f"/></g></g></g></svg>